<svg xmlns="http://www.w3.org/2000/svg" xmlns:xlink="http://www.w3.org/1999/xlink" width="19" height="15" viewBox="0 0 19 15"><defs><path id="ecpxa" d="M655 4620.82c-.56.24-1.16.4-1.79.48a3.05 3.05 0 0 0 1.37-1.68c-.6.35-1.27.6-1.98.74a3.16 3.16 0 0 0-2.28-.96 3.07 3.07 0 0 0-3.03 3.72 8.94 8.94 0 0 1-6.43-3.16c-.27.44-.43.96-.43 1.52a3 3 0 0 0 1.4 2.52c-.52-.02-1-.15-1.42-.38v.04a3.05 3.05 0 0 0 2.5 2.97 3.22 3.22 0 0 1-1.4.05 3.11 3.11 0 0 0 2.9 2.1 6.38 6.38 0 0 1-4.61 1.25 9.02 9.02 0 0 0 4.78 1.37 8.68 8.68 0 0 0 8.87-9.01c.6-.43 1.13-.96 1.55-1.57z"/></defs><g><g transform="translate(-638 -4618)"><use fill="#fff" xlink:href="#ecpxa"/></g></g></svg>